# xmcd
#
# Track frame offsets:
#	150
#	16695
#	43595
#	62225
#	85607
#
# Disc length: 1383 seconds
#
# Revision: 0
# Processed by: cddbd v1.5.2PL0 Copyright (c) Steve Scherf et al.
# Submitted via: audiograbber 1.83.01
#
DISCID=30056505
DTITLE=Missing Link Feat. Maria - Paradise [CDM)
DYEAR=2002
DGENRE=House
TTITLE0=Paradise (Radio Edit)
TTITLE1=Paradise (Extended Version)
TTITLE2=Paradise (Dave Storm Snowful Remix)
TTITLE3=Paradise (2-Steppin' Remix)
TTITLE4=Paradise (Nu Soul Remix)
EXTD=TR.
EXTT0=
EXTT1=
EXTT2=
EXTT3=
EXTT4=
PLAYORDER=
